PathFileType	4	(X/Y/Z)	C:/Users/opensim2020/Desktop/walking_exp_matlab/subject01_walking05_straight_02.trc	
DataRate	CameraRate	NumFrames	NumMarkers	Units	OrigDataRate	OrigDataStartFrame	OrigNumFrames	
100.00	100.00	8	43	mm	100.00	1501	205	
Frame#	Time	LFHD			RFHD			LBHD			RBHD			C7			T10			CLAV			STRN			RBAK			LSHO			LUPA			LELB			LFRM			LWRA			LWRB			LFIN			RSHO			RUPA			RELB			RFRM			RWRA			RWRB			RFIN			LASI			RASI			LPSI			RPSI			LTHI			LKNE			LTIB			LANK			LHEE			LTOE			RTHI			RKNE			RTIB			RANK			RHEE			RTOE			*39			*40			*41			*42			
		X1	Y1	Z1	X2	Y2	Z2	X3	Y3	Z3	X4	Y4	Z4	X5	Y5	Z5	X6	Y6	Z6	X7	Y7	Z7	X8	Y8	Z8	X9	Y9	Z9	X10	Y10	Z10	X11	Y11	Z11	X12	Y12	Z12	X13	Y13	Z13	X14	Y14	Z14	X15	Y15	Z15	X16	Y16	Z16	X17	Y17	Z17	X18	Y18	Z18	X19	Y19	Z19	X20	Y20	Z20	X21	Y21	Z21	X22	Y22	Z22	X23	Y23	Z23	X24	Y24	Z24	X25	Y25	Z25	X26	Y26	Z26	X27	Y27	Z27	X28	Y28	Z28	X29	Y29	Z29	X30	Y30	Z30	X31	Y31	Z31	X32	Y32	Z32	X33	Y33	Z33	X34	Y34	Z34	X35	Y35	Z35	X36	Y36	Z36	X37	Y37	Z37	X38	Y38	Z38	X39	Y39	Z39	X40	Y40	Z40	X41	Y41	Z41	X42	Y42	Z42	X43	Y43	Z43	

26	0.250	1543.01831	854.72375	1680.89343	1430.51746	838.92340	1691.51074	1529.58948	962.15253	1618.52417	1410.65210	949.70996	1628.30591	1482.06165	986.17682	1441.60193	1461.69238	1025.62842	1150.41956	1483.82532	840.72296	1374.30347	1483.27356	800.36627	1219.37903	1393.71680	1038.46985	1252.97168	1642.69250	910.61115	1398.14197	1729.27637	933.66986	1215.70654	1740.86951	927.55756	1064.72009	1784.22424	869.55945	972.34137	1794.65051	762.25793	882.94995	1807.71252	818.03174	864.08960	1836.80493	757.36237	813.97589	1330.97095	898.22418	1411.16565	1222.24390	967.51147	1219.47791	1217.16467	978.40826	1094.58093	1184.18994	961.25842	975.97491	1202.53528	892.49158	851.55255	1160.83813	934.56476	858.27704	1164.85168	906.34766	775.98102	1566.99646	858.73846	940.61713	1351.37805	854.42981	948.65027	1507.80933	1043.18103	953.62427	1362.50208	1036.86865	954.67487	1615.98767	906.12030	608.40881	1597.71021	922.67786	474.09860	1603.89221	989.27869	294.96240	1548.28113	1028.03638	78.29062	1492.81995	1071.73303	51.27064	1554.34143	880.40295	37.83988	1279.51538	813.49268	627.48871	1301.50378	768.06427	474.97464	1304.76025	865.10583	326.00266	1356.27100	946.05688	137.56398	1415.31787	995.02405	111.68855	1339.18555	830.20221	57.88123	1453.17273	857.07751	1722.89819	-3101.79810	1973.14136	1023.30573	-3140.61816	2012.55884	1022.00293			 
27	0.260	1542.72327	844.97876	1680.49805	1430.29761	829.35175	1690.94897	1529.62097	952.57800	1618.39343	1410.65112	940.25671	1627.90820	1482.56982	977.04114	1441.36670	1462.62854	1017.02631	1150.24402	1483.91602	831.57532	1373.83240	1483.58691	791.44788	1218.84839	1394.77368	1029.72668	1252.56824	1642.98450	900.93054	1398.18970	1730.39270	923.31012	1216.18823	1742.68359	915.97284	1065.10657	1786.39771	856.16425	973.90015	1797.55005	746.87952	887.14203	1810.23181	802.18530	866.91083	1839.61072	740.21716	818.18610	1331.16541	889.56232	1410.52783	1223.02820	960.29095	1219.08850	1218.01318	971.65308	1094.33350	1184.72095	955.14227	975.68005	1202.39917	886.92761	850.96387	1161.15967	929.32349	857.90979	1164.87402	901.53363	775.40417	1567.45837	850.30206	939.79315	1352.06030	845.81580	948.62195	1508.01575	1034.84839	953.21429	1362.66821	1028.28198	954.31519	1615.81665	901.11945	607.84717	1597.93323	919.61365	473.81790	1603.94434	987.66992	295.24139	1548.17871	1027.62341	78.69543	1492.48352	1071.25281	51.81173	1553.77429	879.60779	37.50796	1279.93835	803.35114	628.09113	1302.63525	757.58337	475.34341	1304.82532	846.88171	321.79916	1355.59521	917.59497	129.08316	1414.41467	964.98956	100.18259	1338.19434	797.37079	56.56167	1452.86011	847.34259	1722.39893	-3101.84375	1973.13110	1023.46777	-3140.61694	2012.54785	1021.94666			 
28	0.270	1542.44727	835.26947	1680.09265	1430.00793	819.66351	1690.34961	1529.53906	942.98352	1618.18774	1410.64832	930.84991	1627.54907	1483.01990	967.90167	1441.11707	1463.41052	1008.31549	1149.97107	1483.87659	822.39813	1373.24890	1483.92065	782.60339	1218.25403	1395.75781	1021.05280	1252.07288	1643.16260	891.21301	1398.09863	1731.23022	912.99683	1216.47864	1744.42639	904.47455	1065.40137	1788.48706	842.89758	975.48444	1800.22681	731.72235	891.21497	1812.62036	786.60541	869.66705	1842.69238	723.90436	822.65607	1331.35352	881.01947	1409.94031	1223.72192	953.00128	1218.46802	1218.62939	964.69836	1093.92053	1185.12683	948.85803	975.27966	1202.42236	881.20673	850.11615	1161.35327	923.93073	857.39081	1164.84875	896.37903	774.90839	1567.84180	841.88885	938.98840	1352.34265	837.06067	948.24310	1508.11414	1026.44250	952.80603	1362.74854	1019.49420	953.75928	1615.80823	896.02081	607.53455	1598.14392	916.64282	473.69714	1604.00171	986.22607	295.62067	1548.09448	1027.29651	79.18781	1492.40601	1071.11328	52.65386	1554.49487	880.33490	37.71745	1280.41528	793.60040	628.26770	1303.30176	747.07703	475.53311	1304.52893	828.77570	317.47330	1354.68005	888.58667	120.83070	1413.56042	934.55334	89.48313	1337.21558	764.05145	55.73954	1452.53247	837.64392	1721.76111	-3101.81689	1973.26172	1023.28107	-3140.71460	2012.56775	1022.02112			 
29	0.280	1542.05713	825.51245	1679.59863	1429.57227	810.06500	1689.55640	1529.40979	933.40741	1617.93567	1410.48621	921.31970	1627.05164	1483.29907	958.66785	1440.70581	1463.97937	999.54999	1149.62036	1483.94373	813.25110	1372.77625	1484.05237	773.55939	1217.55957	1396.58337	1012.30035	1251.53687	1643.27539	881.51117	1397.94128	1731.91772	902.62164	1216.64563	1745.98425	893.05231	1065.65479	1790.39453	829.73657	976.98376	1802.68542	716.84149	895.19293	1814.92407	771.25183	872.40601	1845.27185	707.60400	826.83252	1331.45593	872.36804	1409.13708	1224.40588	945.49945	1217.83337	1219.17346	957.66803	1093.46973	1185.46472	942.47430	974.75970	1202.21411	875.33905	849.28711	1161.38745	918.20343	856.72040	1164.71436	891.03851	774.12933	1568.17896	833.45343	938.22406	1352.74707	828.10681	948.11816	1508.19397	1017.92932	952.44739	1362.85498	1010.79840	953.28198	1615.67371	890.87183	607.32111	1598.35132	913.74744	473.59631	1604.08728	984.78424	296.16605	1548.02441	1026.98926	79.77159	1492.29309	1070.84192	53.57943	1554.50708	880.06818	37.69300	1280.79846	784.48370	627.92432	1304.01819	737.37012	475.26437	1304.15930	810.80975	313.65967	1353.54358	858.73181	113.52406	1411.27527	902.61646	79.35304	1335.82043	730.94769	55.62871	1452.03674	827.87634	1721.17786	-3101.85376	1973.10938	1023.38184	-3140.58545	2012.60767	1021.98096			 
30	0.290	1541.61633	815.69434	1678.99902	1429.10571	800.25220	1688.79724	1529.08972	923.76483	1617.58643	1410.20984	911.85638	1626.55408	1483.47729	949.44604	1440.26831	1464.35266	990.72888	1149.15625	1483.83386	804.14276	1372.09717	1484.09448	764.67029	1216.78699	1397.23254	1003.53479	1250.94824	1643.20032	871.77850	1397.63855	1732.47644	892.22339	1216.79956	1747.27124	881.75238	1065.77966	1792.13745	816.72858	978.45367	1804.95728	702.24988	899.05170	1817.15454	756.16699	875.12860	1847.47083	691.51501	830.76349	1331.40344	863.70355	1408.36377	1224.99011	937.89099	1217.11755	1219.56555	950.45575	1092.85913	1185.78369	935.94330	974.17285	1202.06421	869.22620	848.34442	1161.48730	912.34393	855.98163	1164.47717	885.46344	773.25519	1568.50940	824.92444	937.45526	1352.80908	819.09229	947.50922	1508.10059	1009.37061	952.11566	1362.89661	1001.93469	952.72064	1615.59131	885.66974	607.26996	1598.61096	910.83081	473.70258	1604.07751	983.24390	296.73013	1548.01013	1026.76807	80.50926	1492.08093	1070.53040	54.58573	1554.54041	879.96259	37.65137	1281.40833	776.01874	627.37207	1304.98828	728.31097	475.04855	1303.58655	793.50494	310.40149	1351.83533	829.07288	106.91096	1409.45544	870.63440	70.76418	1334.53955	697.88910	56.08652	1451.53247	818.05066	1720.41992	-3101.76587	1973.17358	1023.41718	-3140.48657	2012.49854	1022.05164			 
31	0.300	1541.03394	805.88916	1678.32446	1428.41809	790.61554	1687.87219	1528.79797	914.17584	1617.21326	1409.83154	902.35901	1625.93372	1483.53503	940.22192	1439.71191	1464.49219	981.87610	1148.60522	1483.41821	794.79932	1371.26611	1484.08362	755.57568	1216.04224	1397.71130	994.73016	1250.24622	1643.03955	862.04675	1397.30664	1732.81580	881.78082	1216.80945	1748.32129	870.58002	1065.84546	1793.62061	803.95532	979.78674	1807.08252	687.91913	902.86499	1819.32446	741.37030	877.84296	1849.60828	675.66217	834.70276	1331.30811	854.99091	1407.42737	1225.31165	930.16754	1216.29602	1219.77881	943.12946	1092.25610	1186.00610	929.17993	973.44824	1201.88501	862.98810	847.36493	1161.76343	906.19153	855.21460	1164.40027	879.65143	772.43359	1568.75647	816.39063	936.70605	1352.86389	809.77191	947.01172	1507.90845	1000.67700	951.78644	1362.85730	992.87360	952.07910	1615.31494	880.51349	607.19537	1598.74976	907.80872	473.85370	1604.05542	981.68646	297.32892	1547.87134	1026.50488	81.12958	1491.84692	1070.22961	55.54890	1554.62195	879.86591	37.63026	1281.69360	768.07123	626.27454	1305.80469	719.68445	474.65060	1302.56946	776.10004	307.32965	1349.71436	799.10156	101.13362	1406.92383	839.33844	62.96247	1333.25317	665.25946	57.20661	1450.78992	808.26501	1719.83679	-3101.98267	1973.12927	1023.53693	-3140.65698	2012.58984	1022.02045			 
32	0.310	1540.41675	796.11639	1677.54688	1427.71899	781.01721	1686.92969	1528.32190	904.52197	1616.69482	1409.32092	892.85248	1625.26343	1483.44006	930.97742	1439.02185	1464.51563	972.94708	1147.93030	1483.22900	785.68018	1370.51721	1483.90002	746.39783	1215.23523	1397.96899	985.86029	1249.47815	1642.76733	852.33484	1396.84302	1732.90002	871.36029	1216.65259	1749.15698	859.60437	1065.76233	1794.95801	791.44629	981.05957	1808.92529	673.87189	906.41809	1821.28491	726.83197	880.49005	1851.57947	660.27698	838.62646	1331.03992	846.16840	1406.39392	1225.69714	922.23541	1215.39221	1220.07178	935.62128	1091.47559	1186.10168	922.27844	972.58234	1201.62341	856.49573	846.28668	1161.68457	900.04810	854.20844	1164.10706	873.65210	771.46680	1568.87817	807.66217	935.90082	1352.90088	800.41638	946.46472	1507.59790	991.86816	951.42950	1362.70325	983.67340	951.43652	1614.86731	875.39148	606.94421	1598.78003	904.66284	473.88678	1603.98682	979.98944	298.03275	1547.79578	1026.19592	81.81779	1491.81238	1069.97607	56.80936	1554.64978	879.68494	37.49706	1282.29041	760.73627	624.90887	1306.59961	711.33716	474.11615	1301.72656	759.24500	304.91327	1347.31848	769.47443	96.52692	1404.25195	808.03186	56.21236	1332.10681	633.06848	59.35089	1450.21826	798.47241	1718.78113	-3101.96875	1973.07568	1023.25873	-3140.75562	2012.46912	1022.01282			 
33	0.320	1539.65759	786.28223	1676.71143	1426.97986	771.24536	1685.92847	1527.96228	895.02832	1616.21558	1408.70105	883.29553	1624.50903	1483.22424	921.73022	1438.28491	1464.29810	963.92383	1147.23010	1482.62988	776.33643	1369.58582	1483.54187	737.23071	1214.32947	1398.10059	976.89301	1248.58691	1642.36694	842.62103	1396.28918	1733.08838	860.89948	1216.50110	1749.76428	848.83740	1065.49609	1796.02710	779.13489	982.14771	1810.59827	660.13019	909.95099	1823.06873	712.57788	883.07422	1853.39233	645.14465	842.41516	1330.55627	837.27496	1405.31775	1225.73108	914.25018	1214.44592	1220.39246	928.02380	1090.65698	1186.15283	915.19952	971.67450	1201.34753	849.90399	845.15228	1161.62012	893.33496	853.17810	1163.86267	867.47284	770.51361	1569.12537	798.97455	935.31415	1352.92004	790.83386	945.74799	1507.11279	982.91730	951.00208	1362.36047	974.29004	950.74872	1614.54248	870.16821	606.75928	1598.66052	901.22986	473.92871	1604.10364	978.43744	298.97913	1547.63281	1025.79712	82.62113	1491.58789	1069.59521	58.01571	1554.68420	879.53998	37.46525	1282.55188	753.61908	623.26312	1307.63794	702.71375	473.56845	1300.70764	742.38080	302.38562	1344.72900	740.67883	93.22285	1400.89783	777.67609	50.72389	1331.46472	601.88806	62.85365	1449.41492	788.60791	1717.82922	-3101.95679	1973.10596	1023.46936	-3140.50366	2012.51428	1021.96051			 
